<svg viewBox="0 0 24 24" fill="none" xmlns="http://www.w3.org/2000/svg">
<path transform="translate(5 4.5)" d="M0 13.2835V12.1315C0 12.0373 0.0140835 11.9463 0.0422502 11.8585C0.0704168 11.7707 0.122583 11.6888 0.19875 11.6128L11.5758 0.257001C11.6684 0.164334 11.7692 0.098333 11.878 0.0589996C11.9867 0.0196663 12.0932 0 12.1975 0C12.306 0 12.4092 0.0196663 12.507 0.0589996C12.6048 0.098333 12.6995 0.165 12.791 0.259L13.739 1.196C13.8245 1.28617 13.8894 1.38342 13.9338 1.48775C13.9779 1.59208 14 1.70475 14 1.82575C14 1.92475 13.979 2.02842 13.937 2.13675C13.8948 2.24508 13.8288 2.34667 13.739 2.4415L2.38325 13.7975C2.29875 13.8735 2.21417 13.9288 2.1295 13.9635C2.04467 13.998 1.95767 14.0153 1.8685 14.0153H0.73625C0.52425 14.0153 0.3485 13.9438 0.209 13.801C0.0696668 13.6582 0 13.4857 0 13.2835ZM11.8398 3.12675L13.1525 1.814L12.2013 0.85L10.8885 2.16275L11.8398 3.12675Z" fill="currentColor"/>
</svg>
